<svg xmlns="http://www.w3.org/2000/svg" viewBox="4432 7003.323 140.823 73.878">
    <defs>
        <style>
            .cls-1{fill:#898588}
        </style>
    </defs>
    <g id="i2rYQ2_2_" transform="translate(4432.086 7003.353)">
        <g id="Group_1" data-name="Group 1" transform="translate(-.086 -.03)">
            <path id="Union_2" d="M-4323.931-6929.485a3.9 3.9 0 0 1-2.9-1.761 7.277 7.277 0 0 1-1.07-3.921c.018-.19.018-.4.018-.587a8.178 8.178 0 0 1 .172-2.16 5.738 5.738 0 0 1 1.4-2.884 3.611 3.611 0 0 1 1.659-.986 5.118 5.118 0 0 1 2.227-.1 3.619 3.619 0 0 1 2.385 1.415 5.453 5.453 0 0 1 .967 2.074 11.4 11.4 0 0 1 .276 3.749 7.527 7.527 0 0 1-.673 2.763 3.927 3.927 0 0 1-2.833 2.333 4.517 4.517 0 0 1-1 .11 4.8 4.8 0 0 1-.628-.045zm-.034-10.779a1.791 1.791 0 0 0-.882.8 5.831 5.831 0 0 0-.673 2.555c-.018.4 0 .777 0 1.227a8.056 8.056 0 0 0 .26 2.626 3.01 3.01 0 0 0 .777 1.417 1.782 1.782 0 0 0 1.814.311 1.988 1.988 0 0 0 1.123-1.262 6.328 6.328 0 0 0 .413-2.125 11.822 11.822 0 0 0-.258-3.748 2.974 2.974 0 0 0-.536-1.193 1.713 1.713 0 0 0-1.37-.725 2.029 2.029 0 0 0-.667.116zm-30.025 10.382a1.125 1.125 0 0 1-.519-.311c-.172-.172.035-.362.088-.552.086-.311.208-.6.309-.916.053-.139.139-.172.278-.086a3.749 3.749 0 0 0 1.554.448 2.014 2.014 0 0 0 1.728-.552 1.777 1.777 0 0 0-.225-2.592 7.035 7.035 0 0 0-1.364-.726 4.13 4.13 0 0 1-1.763-1.364 2.667 2.667 0 0 1-.534-1.521v-.519a3.271 3.271 0 0 1 1.728-2.97 2.876 2.876 0 0 1 1.606-.432.824.824 0 0 0 .415.053 4.235 4.235 0 0 1 2.158.431c.379.174.415.277.26.657-.1.241-.157.483-.26.726-.1.276-.139.276-.4.155a3.33 3.33 0 0 0-1.761-.415 1.587 1.587 0 0 0-1.331.777 1.713 1.713 0 0 0 .4 2.178 6.46 6.46 0 0 0 1.364.742 4.915 4.915 0 0 1 1.988 1.469 2.891 2.891 0 0 1 .569 1.5 3.943 3.943 0 0 1-.5 2.454 3.307 3.307 0 0 1-1.78 1.468 5.238 5.238 0 0 1-1.784.31 6.625 6.625 0 0 1-2.223-.412zm22.2.311h-1.156c-.276 0-.311-.034-.311-.311v-11.609c.018-.224.035-.241.258-.241h1.935c.26 0 .276.035.293.311v.932c-.018 1.591-.018 3.215-.018 4.839v5.821c.018.189-.086.258-.258.258zm-6.79-.034c-.12 0-.19-.052-.19-.174v-5.1c0-.156-.086-.225-.241-.225h-3.041c-.466 0-.466 0-.466.45v4.784c0 .172-.07.242-.243.242h-1.8c-.243 0-.276-.052-.276-.293v-11.558c0-.258.034-.276.276-.276h1.743c.278 0 .3.018.3.293v4.561c0 .225.016.243.241.243h3.213c.243 0 .278-.035.278-.311v-4.6c0-.137.051-.208.19-.208h1.9c.139 0 .208.07.208.225v.243c.018 1.865.018 3.749.018 5.614v5.856a.2.2 0 0 1-.208.225zm30.076-.018a.349.349 0 0 1-.344-.189 443.66 443.66 0 0 0-1.953-3.334c-.293-.5-.587-.984-.881-1.469-.554-.932-1.088-1.865-1.642-2.8a10.085 10.085 0 0 0-.622-.984v8.412c0 .364-.018.364-.362.364h-1.295c-.26 0-.294-.035-.294-.293v-11.626c0-.155.069-.225.224-.225h1.78a.327.327 0 0 1 .293.192c.258.448.534.88.794 1.329.656 1.123 1.331 2.246 1.986 3.369.587 1 1.176 2 1.745 3.006a1.419 1.419 0 0 0 .139.207.472.472 0 0 0 .086.018c0-.07.018-.156.018-.225v-7.67c0-.121.051-.208.19-.208h1.554c.139 0 .189.069.189.208v11.644c-.018.241-.051.276-.293.276zm-57.871 0c-.207 0-.276-.086-.207-.293.139-.467.293-.916.45-1.383.208-.622.415-1.26.622-1.882.19-.569.4-1.141.587-1.728.241-.744.5-1.485.742-2.229.295-.9.606-1.8.9-2.694.189-.57.4-1.159.569-1.728a.282.282 0 0 1 .311-.225h1.692a.34.34 0 0 1 .364.26c.293.933.6 1.847.914 2.763.468 1.417.934 2.851 1.4 4.267.26.812.536 1.624.8 2.436.206.64.431 1.26.638 1.9a.017.017 0 0 0 .018.018c.156.448.121.483-.362.483h-1.59c-.293 0-.31-.018-.4-.294-.258-.847-.534-1.692-.777-2.557a.265.265 0 0 0-.293-.225c-.554.053-1.105.053-1.657.053h-1.642c-.276 0-.329.051-.4.329-.156.535-.329 1.053-.5 1.571-.1.329-.207.64-.311.969a.251.251 0 0 1-.278.189zm4.7-9.623c-.225.83-.45 1.642-.693 2.471-.241.794-.483 1.571-.742 2.366-.07.208-.035.276.172.293h2.593c.189 0 .206-.051.154-.241-.07-.225-.139-.468-.207-.692-.157-.535-.312-1.053-.466-1.589-.157-.552-.311-1.106-.468-1.675-.1-.346-.19-.673-.293-1.02-.033.033-.05.054-.05.088zm-11.47 9.6a.188.188 0 0 1-.209-.189v-11.748c0-.121.07-.172.192-.172h5.561c.139 0 .208.086.208.225v1.07c0 .208-.086.258-.327.258h-2.972c-.293 0-.344.035-.344.312v2.954c0 .243.033.276.292.276h2.558c.364 0 .381.018.381.381v.777c0 .4-.018.4-.415.4h-2.418c-.364 0-.4.035-.4.4v4.854a.2.2 0 0 1-.225.207zm-17.293-12.041h-4.854c-.258-.016-.311-.1-.207-.345.5-1.244 1.019-2.471 1.52-3.714.5-1.209 1-2.418 1.5-3.645.172-.433.362-.881.519-1.313a.7.7 0 0 0 0-.415c-.172-.553-.364-1.088-.536-1.624-.448-1.348-.88-2.694-1.329-4.042-.3-.88-.606-1.778-.9-2.661l-.934-2.849c-.241-.744-.466-1.487-.724-2.247l-.622-1.813c-.208-.623-.4-1.245-.587-1.865-.19-.571-.38-1.123-.571-1.694a89.94 89.94 0 0 0-.638-1.968c-.19-.569-.379-1.158-.571-1.728-.051-.172-.018-.225.157-.242h5.027c.379 0 .379 0 .483.364.225.794.433 1.606.658 2.4.189.691.4 1.381.6 2.072.208.761.415 1.538.621 2.3.139.534.295 1.07.45 1.589.156.587.311 1.174.483 1.761.156.536.293 1.072.45 1.608.155.57.329 1.139.483 1.726.157.554.293 1.105.448 1.659.12.46.257.905.394 1.365h.021c.088-.294.156-.587.243-.863.225-.777.432-1.573.64-2.35l.415-1.606c.223-.795.448-1.589.656-2.4.156-.553.293-1.105.432-1.659.208-.759.431-1.536.64-2.3.154-.569.309-1.157.466-1.728.154-.587.311-1.174.483-1.761.157-.554.294-1.124.448-1.677.018-.086.053-.172.07-.259a.32.32 0 0 1 .38-.258h4.3c.293 0 .344.1.258.4-.208.6-.4 1.209-.6 1.832-.242.759-.5 1.519-.743 2.3-.208.623-.4 1.243-.6 1.865-.208.64-.431 1.262-.64 1.9-.189.6-.4 1.209-.585 1.813-.311.916-.606 1.849-.916 2.765s-.571 1.813-.865 2.729c-.276.847-.554 1.692-.847 2.54-.223.656-.431 1.329-.638 1.986-.139.448-.293.88-.45 1.313-.208.623-.4 1.26-.6 1.883-.208.64-.433 1.279-.638 1.935-.156.466-.295.933-.45 1.4l-.881 2.694c-.207.64-.415 1.28-.6 1.917-.086.243-.172.485-.26.744a.223.223 0 0 1-.241.172zm1.331-15.305zm72.727 6.529a11.382 11.382 0 0 1-2.54-.327 8.65 8.65 0 0 1-3.2-1.365 5.223 5.223 0 0 1-1.8-2.125 11.189 11.189 0 0 1-.519-1.45 3.372 3.372 0 0 1-.139-.916 9 9 0 0 1 .121-2.35 6.371 6.371 0 0 1 1.244-2.729 7.844 7.844 0 0 1 1.554-1.452 11.093 11.093 0 0 1 2.282-1.192c.64-.241 1.3-.448 1.951-.638a12.029 12.029 0 0 1 1.366-.311c.708-.139 1.417-.26 2.125-.381.051 0 .086-.018.139-.018.57-.051 1.139-.12 1.693-.172.258-.033.311-.068.311-.329a14.8 14.8 0 0 0-.018-1.5 2.959 2.959 0 0 0-1.745-2.661 5.263 5.263 0 0 0-2.247-.45 13.188 13.188 0 0 0-1.847.07 17.284 17.284 0 0 0-2.09.448c-.571.156-1.123.4-1.694.589a4.045 4.045 0 0 0-.415.19c-.155.051-.206.016-.223-.157v-3.023c0-.329 0-.329.311-.45a16.256 16.256 0 0 1 2.712-.759 12.983 12.983 0 0 1 2.953-.311c.468.018.951.018 1.417 0a7.5 7.5 0 0 1 1.971.19 7.435 7.435 0 0 1 3.334 1.452 6.191 6.191 0 0 1 1.832 2.366 10.384 10.384 0 0 1 .6 2.057c.035.19.053.379.07.554.035.483.069.984.069 1.467-.034 2.211-.034 4.44-.034 6.668v6.978a.529.529 0 0 1-.364.571 11.65 11.65 0 0 1-2.143.777q-.751.209-1.5.364c-.535.1-1.07.155-1.606.224a16.539 16.539 0 0 1-2.179.118c-.58.003-1.167-.011-1.754-.011zm4.371-12.92l-.794.1c-.64.122-1.279.243-1.917.381a9.106 9.106 0 0 0-2.418.846 4.9 4.9 0 0 0-1.313.968 4.533 4.533 0 0 0-1.055 2.158 6 6 0 0 0 .157 3.076 3.124 3.124 0 0 0 .863 1.331 4.164 4.164 0 0 0 2.333.984c.519.051 1.054.051 1.573.051a6.172 6.172 0 0 0 2.383-.433c.345-.137.345-.137.345-.5.035-1.4.035-2.832.035-4.266v-4.543c0-.105-.052-.158-.146-.158zm-38.4 12.922a14.19 14.19 0 0 1-2.074-.243 11.008 11.008 0 0 1-2.107-.587 14.107 14.107 0 0 1-1.432-.726c-.225-.121-.225-.208-.139-.415.329-.812.673-1.606 1-2.418.069-.154.1-.293.172-.448.086-.209.156-.243.346-.105a6.888 6.888 0 0 0 1.434.726 7.955 7.955 0 0 0 1.8.415 6.034 6.034 0 0 0 1.761-.034 3.011 3.011 0 0 0 2.471-2.178 3.3 3.3 0 0 0-.38-2.78 3.806 3.806 0 0 0-1.59-1.313c-.6-.293-1.245-.536-1.865-.812a9.168 9.168 0 0 1-2.765-1.71 5.627 5.627 0 0 1-1.624-2.575 7.061 7.061 0 0 1-.137-3.126 6.273 6.273 0 0 1 1.088-2.626 6.281 6.281 0 0 1 2.039-1.83 8.383 8.383 0 0 1 2.8-.951 2.427 2.427 0 0 1 .5-.018h1.745a8.992 8.992 0 0 1 2.781.5c.225.068.45.174.673.243a.4.4 0 0 1 .311.448c-.018.847 0 1.694 0 2.557v.587c0 .053-.018.139-.033.294a3.159 3.159 0 0 1-.4-.241 5.724 5.724 0 0 0-1.849-.83 4.565 4.565 0 0 0-2.591-.018 2.722 2.722 0 0 0-1.9 1.865 3.139 3.139 0 0 0-.051 1.694 2.827 2.827 0 0 0 .967 1.52 6.534 6.534 0 0 0 1.763 1.053 24.873 24.873 0 0 1 2.573 1.209 7.11 7.11 0 0 1 2.8 2.7 4.877 4.877 0 0 1 .519 1.4 7.875 7.875 0 0 1 .19 1.781 6.383 6.383 0 0 1-.693 2.884 6.76 6.76 0 0 1-1.692 2.142 8.132 8.132 0 0 1-3.506 1.71 10.549 10.549 0 0 1-2.439.268c-.157.002-.315-.001-.47-.006zm-19.522-.018a7.782 7.782 0 0 1-1.086-.1 19.233 19.233 0 0 1-1.728-.329 11.907 11.907 0 0 1-1.244-.415 6.192 6.192 0 0 1-1.675-.951 5.763 5.763 0 0 1-1.953-2.694 7.54 7.54 0 0 1-.4-2.763 6.612 6.612 0 0 1 1.278-3.906 7.214 7.214 0 0 1 2.489-2.072 16.569 16.569 0 0 1 2.123-.933 19.941 19.941 0 0 1 2.211-.587 25.126 25.126 0 0 1 1.591-.346c.466-.086.932-.122 1.4-.19.5-.051.984-.122 1.485-.172a.222.222 0 0 0 .225-.243 10.444 10.444 0 0 0-.122-2.193 2.911 2.911 0 0 0-2-2.176 7.85 7.85 0 0 0-2.833-.311 11.091 11.091 0 0 0-1.968.258 15.37 15.37 0 0 0-3.076 1.02 1.847 1.847 0 0 0-.242.07 2.314 2.314 0 0 1-.034-.312v-2.955c0-.276.018-.293.276-.4a15.024 15.024 0 0 1 2.694-.761 12.582 12.582 0 0 1 2.765-.311c.708.018 1.417 0 2.125.018a9.128 9.128 0 0 1 2.644.485 7.184 7.184 0 0 1 2.021 1.018 5.98 5.98 0 0 1 1.346 1.383 6.466 6.466 0 0 1 .968 2.037 8.261 8.261 0 0 1 .294 1.573c.068.742.068 1.485.068 2.229 0 4.318 0 8.619.018 12.938a.626.626 0 0 1-.433.692 12.92 12.92 0 0 1-2.089.724c-.777.174-1.556.381-2.35.483a21.815 21.815 0 0 1-2.366.192c-.347.014-.691.02-1.035.02-.466.006-.925-.004-1.391-.014zm4.441-12.887c-.657.1-1.313.224-1.97.327a10.739 10.739 0 0 0-2.833.847 4.588 4.588 0 0 0-1.761 1.331 4.368 4.368 0 0 0-.951 2.78c0 .347-.018.673 0 1.02a3.8 3.8 0 0 0 .865 2.28 3.838 3.838 0 0 0 2.538 1.244c.554.069 1.105.051 1.659.069a6.574 6.574 0 0 0 2.383-.433c.329-.12.347-.137.347-.483-.018-1.432-.018-2.867-.018-4.318v-4.457c0-.168-.02-.22-.126-.22a.96.96 0 0 0-.136.019zm-58.27 12.887a13.4 13.4 0 0 1-2.037-.243 10.435 10.435 0 0 1-2.056-.569 6.417 6.417 0 0 1-3.109-2.418 5.9 5.9 0 0 1-.812-1.918 8.209 8.209 0 0 1-.208-2.332 6.469 6.469 0 0 1 2.333-4.786 10.468 10.468 0 0 1 2.988-1.692 18.891 18.891 0 0 1 2.5-.759c.83-.192 1.659-.329 2.5-.468.726-.12 1.452-.19 2.178-.276.258-.033.311-.068.311-.344a13.8 13.8 0 0 0-.07-1.712 2.9 2.9 0 0 0-2.123-2.591 8.119 8.119 0 0 0-3.283-.258 14.591 14.591 0 0 0-1.761.276 12.33 12.33 0 0 0-2.557.865c-.483.223-.5.223-.5-.329v-2.679c0-.362.018-.38.344-.5.64-.208 1.28-.415 1.919-.6a10.033 10.033 0 0 1 1.053-.208c.346-.051.708-.121 1.055-.172.466-.053.916-.086 1.381-.1.6-.018 1.192 0 1.8 0a8.975 8.975 0 0 1 2.039.26 8.311 8.311 0 0 1 2.3.845 5.934 5.934 0 0 1 2.039 1.832 6.931 6.931 0 0 1 .949 2.055 10.583 10.583 0 0 1 .364 2.937c.018 2.264.018 4.475.018 6.686v7.169a.594.594 0 0 1-.4.64 12.847 12.847 0 0 1-2.125.742c-.778.174-1.573.364-2.35.483a17.043 17.043 0 0 1-2.107.174c-.37.014-.736.02-1.1.02-.492-.004-.981-.014-1.476-.024zm4.372-12.887c-.241.034-.5.051-.742.1-.812.157-1.624.278-2.42.485a8.9 8.9 0 0 0-2.366.967 3.989 3.989 0 0 0-1.763 2.177 5.715 5.715 0 0 0-.311 1.865 7 7 0 0 0 .139 1.348 3.637 3.637 0 0 0 .865 1.726 3.608 3.608 0 0 0 2.331 1.141 8.236 8.236 0 0 0 4.146-.362c.311-.122.346-.139.346-.485.018-1.4.018-2.832.018-4.266v-4.232a1.648 1.648 0 0 0-.018-.293.175.175 0 0 0-.184-.175zm15.72 12.645h-4.629c-.139 0-.208-.069-.208-.225v-.276q-.026-8.162-.018-16.307v-16.342c0-.45 0-.45.45-.45h4.473c.364 0 .381.018.381.381v33.011a.223.223 0 0 1-.208.208zm71.226-.1h-4.3c-.433 0-.433 0-.433-.433v-20.937a.553.553 0 0 1 .382-.6 14.717 14.717 0 0 1 2.8-.9c.5-.1 1.02-.172 1.521-.26a27.206 27.206 0 0 1 5.148-.258c.258 0 .293.035.293.293v3.213c0 .278-.1.347-.379.26a8.253 8.253 0 0 0-1.573-.293 6.269 6.269 0 0 0-2.193.225 1.3 1.3 0 0 0-.241.1c-.485.189-.485.189-.485.726v18.553c0 .243-.051.294-.293.312zm30.35-18.812c-.189-.035-.362-.086-.552-.121a.448.448 0 0 1-.379-.45 12.634 12.634 0 0 1 .086-2.8c.1-.57.155-1.141.293-1.71a8.7 8.7 0 0 1 .881-2.211 6.827 6.827 0 0 1 1.5-1.8 5.994 5.994 0 0 1 1.867-1.037 10.656 10.656 0 0 1 4.164-.536c.57.035 1.122.139 1.693.225.311.053.6.122.916.172.311.07.38.139.4.45.018.4.051.777.051 1.174a14.331 14.331 0 0 1-.362 3.076 8.908 8.908 0 0 1-1.072 2.695 6.039 6.039 0 0 1-3.109 2.557 7.2 7.2 0 0 1-2 .466c-.483.068-1 .121-1.521.172a19.905 19.905 0 0 1-2.864-.32zm4.32-8.5a4.3 4.3 0 0 0-2.4 1.935 8.645 8.645 0 0 0-.846 2.244 13.392 13.392 0 0 0-.293 2.333c-.018.26 0 .311.258.346.6.086 1.192.139 1.8.208v-.068a7.09 7.09 0 0 0 2.813-.4 4.276 4.276 0 0 0 2.54-2.211 7.937 7.937 0 0 0 .83-2.729c.068-.552.086-1.105.139-1.657a.218.218 0 0 0-.225-.276 52.63 52.63 0 0 0-.88-.1c-.351-.029-.7-.046-1.05-.046a7.962 7.962 0 0 0-2.69.424zm-7.6 4.076c-.534-.155-1.105-.258-1.624-.448-1-.364-2-.726-2.988-1.158a24.92 24.92 0 0 1-5.477-3.23 17.193 17.193 0 0 1-2.815-2.781 13.218 13.218 0 0 1-1.521-2.418 13.2 13.2 0 0 1-.794-2.125 13.929 13.929 0 0 1-.379-4.543 13.36 13.36 0 0 1 .242-1.832c.122-.708.276-1.4.448-2.09a17.515 17.515 0 0 1 .587-1.832 27.289 27.289 0 0 1 2.385-5.027c.327-.554.707-1.07 1.053-1.624a.311.311 0 0 1 .4-.137c.83.258 1.675.5 2.5.777.623.207 1.227.465 1.816.726.655.293 1.329.587 1.951.932.708.379 1.4.779 2.057 1.209.742.5 1.467 1.037 2.193 1.589a13.266 13.266 0 0 1 1.26 1.124 15.049 15.049 0 0 1 1.745 2.142 12.377 12.377 0 0 1 1.192 2.211 11.073 11.073 0 0 1 .657 2.2 11.447 11.447 0 0 1 .241 2.659c-.033.018-.016.018 0 .018-.068.708-.1 1.417-.19 2.125-.068.6-.172 1.227-.293 1.813s-.293 1.174-.466 1.761c-.26.83-.553 1.642-.865 2.436a13.052 13.052 0 0 1-.69 1.521 64.143 64.143 0 0 1-1.313 2.418c-.276.5-.622.968-.934 1.434a.316.316 0 0 1-.276.167.46.46 0 0 1-.107-.015zm-9.518-24.84a.017.017 0 0 1-.018.018 22.856 22.856 0 0 0-1.485 3.264 19.932 19.932 0 0 0-.916 3.162 14.6 14.6 0 0 0-.329 2.763c.018.329.051.657.068.986a7.74 7.74 0 0 0 .726 2.935 10.671 10.671 0 0 0 2.988 3.8 18.852 18.852 0 0 0 2.229 1.624 29.759 29.759 0 0 0 2.815 1.5c.622.276 1.262.519 1.884.759.258.1.293.1.415-.137.4-.8.794-1.606 1.174-2.4a11.966 11.966 0 0 0 .534-1.313c.174-.483.329-.984.468-1.468s.242-.967.344-1.452a9.341 9.341 0 0 0 .192-1.192c.051-.552.119-1.121.119-1.675 0-.536-.086-1.07-.137-1.589a8.267 8.267 0 0 0-1.3-3.456 12.018 12.018 0 0 0-2.8-2.97 22.133 22.133 0 0 0-1.865-1.3 21.921 21.921 0 0 0-1.97-1.088c-.794-.379-1.624-.708-2.418-1.055a1.242 1.242 0 0 0-.391-.13c-.129.011-.186.124-.337.411z" class="cls-1" data-name="Union 2" transform="translate(4432 7003.323)"/>
        </g>
    </g>
</svg>
